# xmcd
#
# Track frame offsets: 
#        150
#        13331
#        27122
#        40895
#        52812
#        66218
#        78315
#        92277
#        104516
#        117952
#        129306
#        142391
#        155363
#        167747
#        181466
#        193404
#        205213
#        218614
#        232103
#        244727
#
# Disc length: 3437 seconds
#
# Revision: 4
# Processed by: cddbd v1.5.2PL0 Copyright (c) Steve Scherf et al.
# Submitted via: ExactAudioCopy v1.0b4
#
DISCID=1a0d6b14
DTITLE=Various Artist - Blues In History I CD 2
DYEAR=1900
DGENRE=Blues
TTITLE0=Kokomo Arnold - Grass Cutter Blues
TTITLE1=Kokomo Arnold - Money Tree Man
TTITLE2=Kokomo Arnold - Delmar Avenue
TTITLE3=Kokomo Arnold - Shake That Thing
TTITLE4=Kokomo Arnold - Try Some Of That
TTITLE5=Kokomo Arnold - My Gal's Been Foolin' Me
TTITLE6=Kokomo Arnold - I'm Going Fishing Too
TTITLE7=Kokomo Arnold - Mister Charlie
TTITLE8=Jack Dupree - Cabbage Greens No. 1
TTITLE9=Jack Dupree - Chaing Gang Blues
TTITLE10=Jack Dupree - Angola Blues
TTITLE11=Jack Dupree - Dupree Shake Dance
TTITLE12=Jack Dupree - Junker Blues
TTITLE13=Lonnie Johnson - Tomorrow Night
TTITLE14=Lonnie Johnson - Working Man's Blues
TTITLE15=Lonnie Johnson - Jelly Roll Baker
TTITLE16=Lonnie Johnson - Careless Love
TTITLE17=Lonnie Johnson - Backwater Blues
TTITLE18=Lonnie Johnson - Love Is The Answer
TTITLE19=Lonnie Johnson - Keep What You Got
EXTD=
EXTT0=
EXTT1=
EXTT2=
EXTT3=
EXTT4=
EXTT5=
EXTT6=
EXTT7=
EXTT8=
EXTT9=
EXTT10=
EXTT11=
EXTT12=
EXTT13=
EXTT14=
EXTT15=
EXTT16=
EXTT17=
EXTT18=
EXTT19=
PLAYORDER=
